<svg width="159" height="22" viewBox="0 0 159 22" fill="none" xmlns="http://www.w3.org/2000/svg">
<path d="M7.868 21.26C6.27333 21.26 4.80867 21.0607 3.474 20.662C2.13933 20.2633 1.02133 19.5873 0.12 18.634L1.94 16.944C2.63333 17.5853 3.45667 18.0967 4.41 18.478C5.36333 18.842 6.412 19.024 7.556 19.024C8.00667 19.024 8.47467 19.0067 8.96 18.972C9.46267 18.92 9.93933 18.8333 10.39 18.712C10.8407 18.5907 11.2047 18.4173 11.482 18.192C11.7593 17.9667 11.898 17.672 11.898 17.308C11.898 16.7187 11.404 16.294 10.416 16.034C9.91333 15.8953 9.376 15.774 8.804 15.67C8.232 15.5487 7.62533 15.4447 6.984 15.358C5.92667 15.1673 4.94733 14.968 4.046 14.76C3.162 14.5347 2.41667 14.214 1.81 13.798C1.37667 13.486 1.03867 13.1047 0.796 12.654C0.553333 12.2033 0.432 11.6573 0.432 11.016C0.432 10.4093 0.605333 9.86333 0.952 9.378C1.316 8.89267 1.81 8.47667 2.434 8.13C3.058 7.78333 3.786 7.52333 4.618 7.35C5.46733 7.15933 6.386 7.064 7.374 7.064C8.17133 7.064 9.012 7.142 9.896 7.298C10.7973 7.43667 11.6553 7.67067 12.47 8C13.2847 8.312 13.9693 8.728 14.524 9.248L13.12 11.094C12.6347 10.7473 12.0627 10.4353 11.404 10.158C10.7453 9.88067 10.0693 9.664 9.376 9.508C8.68267 9.352 8.01533 9.274 7.374 9.274C6.94067 9.274 6.47267 9.3 5.97 9.352C5.48467 9.38667 5.02533 9.46467 4.592 9.586C4.15867 9.70733 3.80333 9.88067 3.526 10.106C3.24867 10.314 3.11 10.5827 3.11 10.912C3.11 11.12 3.17067 11.3107 3.292 11.484C3.43067 11.64 3.61267 11.7873 3.838 11.926C4.27133 12.186 4.83467 12.4027 5.528 12.576C6.23867 12.732 7.01 12.8793 7.842 13.018C8.79533 13.1567 9.73133 13.3387 10.65 13.564C11.5687 13.772 12.3573 14.0667 13.016 14.448C13.5013 14.7253 13.8827 15.0547 14.16 15.436C14.4547 15.8173 14.602 16.2767 14.602 16.814C14.602 17.7847 14.2987 18.5993 13.692 19.258C13.0853 19.9167 12.2707 20.4193 11.248 20.766C10.2427 21.0953 9.116 21.26 7.868 21.26ZM25.4408 17.516L25.7528 14.604L35.3468 7.35H39.0908L25.4408 17.516ZM23.4388 21V1.76H25.8568V21H23.4388ZM35.7628 21L28.6648 13.434L30.4328 11.692L39.1948 21H35.7628ZM48.1432 21V7.35H50.8212V21H48.1432ZM49.4432 4.074C48.8712 4.074 48.4292 3.92667 48.1172 3.632C47.8052 3.33733 47.6492 2.92133 47.6492 2.384C47.6492 1.88133 47.8052 1.474 48.1172 1.162C48.4466 0.85 48.8886 0.694 49.4432 0.694C50.0152 0.694 50.4572 0.841333 50.7692 1.136C51.0812 1.43067 51.2372 1.84667 51.2372 2.384C51.2372 2.88667 51.0726 3.294 50.7432 3.606C50.4312 3.918 49.9979 4.074 49.4432 4.074ZM66.3975 21L58.6495 7.35H61.7955L68.0355 18.92L67.2815 19.154L73.8075 7.35H76.8235L68.8415 21H66.3975ZM90.29 21L82.542 7.35H85.688L91.928 18.92L91.174 19.154L97.7 7.35H100.716L92.734 21H90.29ZM108.624 21V7.35H111.302V21H108.624ZM109.924 4.074C109.352 4.074 108.91 3.92667 108.598 3.632C108.286 3.33733 108.13 2.92133 108.13 2.384C108.13 1.88133 108.286 1.474 108.598 1.162C108.927 0.85 109.369 0.694 109.924 0.694C110.496 0.694 110.938 0.841333 111.25 1.136C111.562 1.43067 111.718 1.84667 111.718 2.384C111.718 2.88667 111.553 3.294 111.224 3.606C110.912 3.918 110.478 4.074 109.924 4.074ZM129.322 21.26C127.519 21.26 125.916 20.9653 124.512 20.376C123.108 19.7693 122.007 18.946 121.21 17.906C120.43 16.8487 120.04 15.6527 120.04 14.318C120.04 13.174 120.274 12.16 120.742 11.276C121.227 10.3747 121.886 9.612 122.718 8.988C123.567 8.364 124.538 7.88733 125.63 7.558C126.722 7.21133 127.875 7.038 129.088 7.038C130.232 7.038 131.307 7.20267 132.312 7.532C133.317 7.844 134.201 8.29467 134.964 8.884C135.727 9.47333 136.316 10.1753 136.732 10.99C137.165 11.7873 137.373 12.68 137.356 13.668L137.33 15.072H122.536L121.938 12.94H135.016L134.626 13.122V12.498C134.539 11.9087 134.219 11.3887 133.664 10.938C133.127 10.4873 132.451 10.1407 131.636 9.898C130.839 9.638 129.989 9.508 129.088 9.508C127.909 9.508 126.835 9.65533 125.864 9.95C124.893 10.2447 124.122 10.73 123.55 11.406C122.978 12.082 122.692 12.992 122.692 14.136C122.692 15.072 122.995 15.8867 123.602 16.58C124.209 17.2733 125.049 17.8107 126.124 18.192C127.199 18.5733 128.438 18.764 129.842 18.764C131.246 18.764 132.407 18.582 133.326 18.218C134.245 17.854 134.99 17.5073 135.562 17.178L136.732 19.206C136.212 19.5527 135.553 19.8907 134.756 20.22C133.976 20.532 133.118 20.7833 132.182 20.974C131.246 21.1647 130.293 21.26 129.322 21.26ZM151.985 21.26C150.391 21.26 148.926 21.0607 147.591 20.662C146.257 20.2633 145.139 19.5873 144.237 18.634L146.057 16.944C146.751 17.5853 147.574 18.0967 148.527 18.478C149.481 18.842 150.529 19.024 151.673 19.024C152.124 19.024 152.592 19.0067 153.077 18.972C153.58 18.92 154.057 18.8333 154.507 18.712C154.958 18.5907 155.322 18.4173 155.599 18.192C155.877 17.9667 156.015 17.672 156.015 17.308C156.015 16.7187 155.521 16.294 154.533 16.034C154.031 15.8953 153.493 15.774 152.921 15.67C152.349 15.5487 151.743 15.4447 151.101 15.358C150.044 15.1673 149.065 14.968 148.163 14.76C147.279 14.5347 146.534 14.214 145.927 13.798C145.494 13.486 145.156 13.1047 144.913 12.654C144.671 12.2033 144.549 11.6573 144.549 11.016C144.549 10.4093 144.723 9.86333 145.069 9.378C145.433 8.89267 145.927 8.47667 146.551 8.13C147.175 7.78333 147.903 7.52333 148.735 7.35C149.585 7.15933 150.503 7.064 151.491 7.064C152.289 7.064 153.129 7.142 154.013 7.298C154.915 7.43667 155.773 7.67067 156.587 8C157.402 8.312 158.087 8.728 158.641 9.248L157.237 11.094C156.752 10.7473 156.18 10.4353 155.521 10.158C154.863 9.88067 154.187 9.664 153.493 9.508C152.8 9.352 152.133 9.274 151.491 9.274C151.058 9.274 150.59 9.3 150.087 9.352C149.602 9.38667 149.143 9.46467 148.709 9.586C148.276 9.70733 147.921 9.88067 147.643 10.106C147.366 10.314 147.227 10.5827 147.227 10.912C147.227 11.12 147.288 11.3107 147.409 11.484C147.548 11.64 147.73 11.7873 147.955 11.926C148.389 12.186 148.952 12.4027 149.645 12.576C150.356 12.732 151.127 12.8793 151.959 13.018C152.913 13.1567 153.849 13.3387 154.767 13.564C155.686 13.772 156.475 14.0667 157.133 14.448C157.619 14.7253 158 15.0547 158.277 15.436C158.572 15.8173 158.719 16.2767 158.719 16.814C158.719 17.7847 158.416 18.5993 157.809 19.258C157.203 19.9167 156.388 20.4193 155.365 20.766C154.36 21.0953 153.233 21.26 151.985 21.26Z" fill="white"/>
</svg>
